-
http:// www . torrentkit. com        
http:// www .torrentkit. com       the fast  and The Hottest Private Tracker on the net

Please Seed back to make the speed Faster!!!

and don't forget to visit      ...... www .torrentkit .com..........
-[align=center][IMG]http://img849.imageshack.us/img849/4646/1d3a5.jpg[/IMG]

** ** ** ** ** ** ** ** ** 

IMDB........ http://www.imdb.com/title/tt1571739/

** ** ** ** ** ** ** ** ** 

[b]PLOT[/b]

Bruno wakes up in bed next to Caroline, his long time crush. But tomorrow she's off for school in France, and maybe she only granted this miracle as a parting gift for her long time friend. So tonight is Bruno's last chance. And tonight, as it happens, Broken Social Scene, her favourite band, is throwing a big outdoor bash. Maybe if Bruno, with the help of his best pal Blake, can score tickets and give Caroline a night to remember, he can keep this miracle alive.

** ** ** ** ** ** ** ** ** 

[b]AVI Information[/b]

Complete name : This Movie Is Broken 2010 480 BRRip Xvid AC3 - PRESTiGE.avi 
Format : AVI 
Format/Info : Audio Video Interleave 
Format profile : OpenDML 
Format settings : rec 
File size : 1.76 GiB 
Duration : 1h 27mn 
Overall bit rate : 2 883 Kbps 
Source: aaf-this.movie.is.broken.720p.bluray.x264
Encoder: Twisted

[b]Video Stream[/b]

ID : 0 
Format : MPEG-4 Visual 
Format profile : Advanced Simple@L5 
Format settings, BVOP : 2 
Format settings, QPel : No 
Format settings, GMC : No warppoints 
Format settings, Matrix : Default (MPEG) 
Codec ID : XVID 
Codec ID/Hint : XviD 
Duration : 1h 27mn 
Bit rate : 2 429 Kbps 
Width : 720 pixels 
Height : 304 pixels 
Display aspect ratio : 2.35:1 
Frame rate : 23.976 fps 
Color space : YUV 
Chroma subsampling : 4:2:0 
Bit depth : 8 bits 
Scan type : Progressive 
Compression mode : Lossy 
Bits/(Pixel*Frame) : 0.463 
Stream size : 1.48 GiB (84%) 
Writing library : XviD 62 


[b]Audio Stream[/b]

ID : 1 
Format : AC-3 
Format/Info : Audio Coding 3 
Mode extension : CM (complete main) 
Codec ID : 2000 
Duration : 1h 27mn 
Bit rate mode : Constant 
Bit rate : 448 Kbps 
Channel(s) : 6 channels 
Channel positions : Front: L C R, Side: L R, LFE 
Sampling rate : 48.0 KHz 
Bit depth : 16 bits 
Compression mode : Lossy 
Stream size : 280 MiB (16%) 
Alignment : Aligned on interleaves 
Interleave, duration : 64 ms (1.53 video frames) 
Interleave, preload duration : 192 ms 
Title : T2_Audio - 5.1 channels 


** ** ** ** ** ** ** ** ** 

[b]Screens[/b]

[IMG]http://img690.imageshack.us/img690/3995/pic11j.png[/IMG]
[IMG]http://img34.imageshack.us/img34/7985/pic12i.png[/IMG]
[IMG]http://img687.imageshack.us/img687/7238/pic13n.png[/IMG]
[IMG]http://img151.imageshack.us/img151/980/pic14m.png[/IMG]
[IMG]http://img151.imageshack.us/img151/7017/pic15n.png[/IMG]
[IMG]http://img132.imageshack.us/img132/5516/pic16f.png[/IMG]
[IMG]http://img715.imageshack.us/img715/9098/pic17q.png[/IMG]
[IMG]http://img812.imageshack.us/img812/449/pic18y.png[/IMG]

** ** ** ** ** ** ** ** **

Note

PRESTiGE - IS LOOKING FOR?: CAMMER'S, AUDIO SUPPLIERS, SYNCER'S, RETAIL SUPPLIER'S, SILVER'S, SCREENER'S, LINE CAPPER'S

ENCODER'S - ANYTHING AT ALL EMAIL US AT..... prestige@twistedtorrents.com

** ** ** ** ** ** ** ** **

Greets Are Flying Out To:

[b]BmB,HiTM4N,BIGGUY,Demedic,DiLLoN,Imagine,CTFX,Jammo
Encoders Past And Present[/b]

** ** ** ** ** ** ** ** ** 

PRESTiGE is the level of respect at which one is regarded by others....RIzE Above Or Sink Below

[IMG]http://leetleech.org/images/83508160282003703104.png[/IMG][/align]